<?xml version="1.0" encoding="UTF-8"?>
<svg id="Layer_1" data-name="Layer 1" xmlns="http://www.w3.org/2000/svg" viewBox="0 0 21.24 21.26">
  <defs>
    <style>
      .cls-1 {
        fill: #fff;
        stroke-width: 0px;
      }
    </style>
  </defs>
  <path class="cls-1" d="M0,10.62c0-.24.08-.45.25-.62.17-.16.38-.24.6-.24h2.04c.23,0,.42.08.58.25.15.17.23.37.23.61s-.07.44-.22.61c-.15.17-.35.25-.58.25H.86c-.23,0-.43-.08-.6-.25-.17-.17-.26-.37-.26-.61ZM2.86,17.55c0-.23.08-.43.23-.61l1.47-1.43c.15-.16.35-.23.59-.23s.44.08.6.23.24.34.24.57-.08.46-.24.64l-1.42,1.42c-.41.32-.82.32-1.23,0-.16-.16-.24-.36-.24-.59ZM2.86,3.71c0-.23.08-.43.23-.61.2-.17.41-.25.64-.25s.42.08.59.24l1.43,1.47c.16.15.24.35.24.59s-.08.44-.24.6-.36.24-.6.24-.44-.08-.59-.24l-1.46-1.43c-.16-.16-.24-.37-.24-.61ZM5.41,10.62c0-.93.23-1.8.7-2.6s1.1-1.44,1.91-1.91,1.67-.7,2.6-.7c.7,0,1.37.14,2.02.42.64.28,1.2.65,1.66,1.12.47.47.84,1.02,1.11,1.66.27.64.41,1.32.41,2.02,0,.94-.23,1.81-.7,2.61-.47.8-1.1,1.43-1.9,1.9s-1.67.7-2.61.7-1.81-.23-2.61-.7c-.8-.47-1.43-1.1-1.9-1.9-.45-.81-.69-1.68-.69-2.62ZM7.11,10.62c0,.98.34,1.81,1.03,2.5.68.69,1.51,1.04,2.49,1.04s1.81-.35,2.5-1.04,1.04-1.52,1.04-2.5-.35-1.78-1.04-2.47c-.69-.68-1.52-1.02-2.5-1.02s-1.8.34-2.48,1.02c-.7.69-1.04,1.51-1.04,2.47ZM9.77,18.4c0-.24.08-.44.25-.6s.37-.24.6-.24.45.08.61.24.24.36.24.6v1.99c0,.24-.08.45-.25.62s-.37.25-.6.25-.44-.08-.6-.25c-.17-.17-.25-.38-.25-.62,0,0,0-1.99,0-1.99ZM9.77,2.9V.86c0-.23.08-.43.25-.6s.37-.26.61-.26.43.08.6.25.25.37.25.6v2.05c0,.23-.08.42-.25.58s-.37.23-.6.23-.44-.08-.6-.23-.26-.35-.26-.58ZM15.29,16.08c0-.23.08-.42.23-.56.15-.16.34-.23.56-.23.24,0,.44.08.6.23l1.46,1.43c.16.17.24.38.24.61s-.08.43-.24.59c-.4.31-.8.31-1.2,0l-1.42-1.42c-.15-.18-.23-.39-.23-.65ZM15.29,5.16c0-.25.08-.45.23-.59l1.42-1.47c.17-.16.37-.24.59-.24.24,0,.44.08.6.25.17.17.25.37.25.6,0,.25-.08.46-.24.62l-1.46,1.43c-.18.16-.38.24-.6.24s-.41-.08-.56-.24-.23-.36-.23-.6ZM17.55,10.62c0-.24.08-.44.24-.62.16-.16.35-.24.57-.24h2.02c.23,0,.43.09.6.26s.26.37.26.6-.09.43-.26.6-.37.25-.6.25h-2.02c-.23,0-.43-.08-.58-.25s-.23-.36-.23-.6Z"/>
</svg>